# xmcd
#
# Track frame offsets: 
#        150
#        13738
#        30732
#        51450
#        67293
#        83724
#        103152
#        119554
#        135117
#        152125
#        168607
#        186733
#        202630
#        220536
#        238454
#        255477
#        273454
#        288392
#        301551
#        320632
#
# Disc length: 4451 seconds
#
# Revision: 2
# Processed by: cddbd v1.5.2PL0 Copyright (c) Steve Scherf et al.
# Submitted via: ExactAudioCopy v1.0b3
#
DISCID=2a116114
DTITLE=George R. R. Martin - A Storm of Swords - Disc 35
DYEAR=2004
DGENRE=Audio Book
TTITLE0=A Storm of Swords 35-01
TTITLE1=A Storm of Swords 35-02
TTITLE2=A Storm of Swords 35-03
TTITLE3=A Storm of Swords 35-04
TTITLE4=A Storm of Swords 35-05
TTITLE5=A Storm of Swords 35-06
TTITLE6=A Storm of Swords 35-07
TTITLE7=A Storm of Swords 35-08
TTITLE8=A Storm of Swords 35-09
TTITLE9=A Storm of Swords 35-10
TTITLE10=A Storm of Swords 35-11
TTITLE11=A Storm of Swords 35-12
TTITLE12=A Storm of Swords 35-13
TTITLE13=A Storm of Swords 35-14
TTITLE14=A Storm of Swords 35-15
TTITLE15=A Storm of Swords 35-16
TTITLE16=A Storm of Swords 35-17
TTITLE17=A Storm of Swords 35-18
TTITLE18=A Storm of Swords 35-19
TTITLE19=A Storm of Swords 35-20
EXTD=
EXTT0=
EXTT1=
EXTT2=
EXTT3=
EXTT4=
EXTT5=
EXTT6=
EXTT7=
EXTT8=
EXTT9=
EXTT10=
EXTT11=
EXTT12=
EXTT13=
EXTT14=
EXTT15=
EXTT16=
EXTT17=
EXTT18=
EXTT19=
PLAYORDER=
